<?xml version="1.0" encoding="UTF-8"?>
<svg xmlns="http://www.w3.org/2000/svg" xmlns:xlink="http://www.w3.org/1999/xlink" width="246.91pt" height="291pt" viewBox="0 0 246.91 291" version="1.1">
<g id="surface1">
<path style=" stroke:none;fill-rule:nonzero;fill:rgb(63.09967%,21.598816%,16.499329%);fill-opacity:1;" d="M 0 0 L 246.910156 0 L 246.910156 291 L 0 291 L 0 0 "/>
<path style=" stroke:none;fill-rule:nonzero;fill:rgb(100%,100%,100%);fill-opacity:1;" d="M 151.902344 70.230469 L 151.902344 85.554688 L 162.519531 85.554688 L 162.519531 171.058594 L 140.066406 171.058594 L 140.066406 58.441406 L 151.996094 58.441406 L 151.996094 43.117188 L 95.976563 43.117188 L 95.976563 58.441406 L 107.914063 58.441406 L 107.914063 171.058594 L 85.210938 171.058594 L 85.210938 85.554688 L 95.785156 85.554688 L 95.785156 70.230469 L 43.117188 70.230469 L 43.117188 85.554688 L 54.996094 85.554688 L 54.996094 184.589844 L 74.398438 204.328125 L 107.914063 204.328125 L 107.914063 227.171875 L 96.03125 227.171875 L 96.03125 246.910156 L 151.949219 246.910156 L 151.949219 227.171875 L 140.066406 227.171875 L 140.066406 204.328125 L 173.335938 204.328125 L 192.6875 184.589844 L 192.6875 85.554688 L 204.621094 85.554688 L 204.621094 70.230469 L 151.902344 70.230469 "/>
</g>
</svg>
